<svg width="71" height="65" viewBox="0 0 71 65" fill="none" xmlns="http://www.w3.org/2000/svg">
<path d="M49.1408 0.267357C46.9212 0.688148 43.3145 2.16092 41.4556 3.39991L40.0406 4.35838L37.7378 4.10123C32.3277 3.5168 25.4193 4.73242 19.3155 7.35067C11.88 10.53 4.91612 17.5198 2.08618 24.6265C0.809938 27.8525 -0.383074 35.4034 0.116327 37.1099C0.282793 37.6944 0.893172 37.8346 2.80754 37.7411C6.24785 37.5775 7.69057 37.6944 9.05005 38.3022C15.681 41.201 16.0417 49.4531 9.66042 52.1883C9.18877 52.3987 8.74486 52.6091 8.68937 52.6324C8.63388 52.6558 8.88358 53.1701 9.21651 53.7546L9.85463 54.8299L11.88 55.1104C12.9898 55.2507 13.9053 55.4611 13.9053 55.5312C13.8776 55.6014 13.4614 56.0689 12.962 56.5832L12.0464 57.4949L12.4626 58.8742C12.6846 59.6223 12.7955 60.3002 12.7123 60.3937C12.6013 60.4638 11.5748 60.2534 10.4095 59.9028C8.38418 59.295 8.2732 59.2716 7.0247 59.6223C6.33109 59.8326 5.38777 59.9963 4.94386 59.9963C4.13927 59.9963 4.13927 59.9963 4.30574 58.9443C4.49995 57.9858 4.44446 57.8923 3.94506 57.8923C3.61213 57.8923 3.36243 57.8222 3.36243 57.7521C3.36243 57.4715 4.0283 56.5598 4.74965 55.9053C5.16582 55.5079 5.63748 54.713 5.83169 54.1052C6.22011 52.7026 6.22011 52.7493 5.58199 52.7493C5.2768 52.7493 4.41672 52.5389 3.63987 52.3052L2.25265 51.861V58.3833V64.9055H4.33349H6.41432V63.4327C6.41432 61.7963 6.74725 61.3288 8.16222 61.0483L8.91132 60.8846V62.8951V64.9055H15.7087H22.5061V60.3002V55.6949L21.3963 54.7364C20.4808 53.9416 20.0923 53.287 19.1768 51.0194C18.5664 49.4999 18.067 48.144 18.067 48.0037C18.067 47.8635 16.8185 44.5439 15.3203 40.6165C11.4916 30.6812 11.1309 29.6058 11.1309 28.6474C11.1309 27.5253 12.3794 25.5148 13.5169 24.7901C15.2093 23.6914 16.4856 23.5277 23.6714 23.5277H30.2746V25.281V27.0343H29.1648C28.166 27.0343 28.055 26.9642 28.055 26.4499V25.8655H22.3396C17.5676 25.8655 16.4578 25.9356 15.6532 26.2629C14.377 26.7538 13.5724 27.8525 13.7389 28.811C13.8498 29.4889 15.6532 34.328 20.5917 47.1855C22.7003 52.7026 22.839 52.9831 23.8933 53.7546L25.0031 54.5494V59.7158V64.9055H26.0574H27.0839L27.1117 59.6456C27.1394 55.1104 27.1949 54.3156 27.5833 53.965C27.8608 53.7312 28.055 53.1467 28.055 52.6792C28.055 51.861 28.055 51.8376 27.0839 51.9779C25.6135 52.1883 24.9199 51.6506 24.3095 49.9207C23.8933 48.6583 22.2009 44.1933 17.2347 31.3124C16.763 30.1435 16.4023 29.1149 16.4023 29.0448C16.4023 28.9746 19.5375 28.9045 23.3384 28.9045H30.2746L30.1358 41.9257C30.0803 49.1025 29.9416 57.2144 29.8584 59.9495L29.6919 64.9055H31.5231H33.3265V37.4606C33.3265 12.6573 33.3819 10.0157 33.7704 9.87542C34.0201 9.80529 35.2408 9.73515 36.4893 9.73515H38.7644L39.236 8.94033C39.458 8.49616 40.429 7.39743 41.3723 6.48571C42.7873 5.08308 43.4254 4.68566 45.3398 3.91421C49.0576 2.41807 51.9707 2.46482 55.7162 4.00772C59.5172 5.59737 62.4027 9.12734 63.0963 13.0313C63.6512 16.3743 62.4304 19.8575 59.7114 22.4524C58.9346 23.2238 57.8526 24.1122 57.3254 24.4395C56.5486 24.8836 56.3544 25.1642 56.3544 25.7953C56.3544 27.2681 54.8562 28.8344 52.5534 29.8162C51.4713 30.2604 51.3881 30.3539 51.6378 30.915C52.3314 32.4111 51.5546 34.819 49.9454 36.1748C48.8356 37.1099 48.8079 37.1567 48.2807 40.1724C47.7536 43.0244 47.7536 43.3049 48.142 44.2166C48.5304 45.0582 48.7524 45.2219 49.7789 45.4322C53.8019 46.2738 57.0757 47.0219 59.0733 47.5596L61.3761 48.1908L61.9033 47.6063C64.6777 44.5673 66.8973 38.1152 66.8973 33.1592C66.8973 30.8916 66.5366 28.0629 66.2314 27.8058C66.1759 27.7357 65.5933 27.9928 64.9551 28.3435C63.8176 28.998 63.7621 28.998 63.3737 28.5539C62.4027 27.4551 62.4027 27.3382 63.4292 26.8006C64.9274 26.0291 67.4799 23.5044 68.6452 21.7043C70.9757 18.0575 71.1422 12.8911 69.0891 9.08059C66.8418 4.89606 63.124 2.04403 58.0468 0.618019C55.7162 -0.0365448 51.5823 -0.200188 49.1408 0.267357ZM28.1105 9.03384C28.277 9.478 28.6376 9.78191 29.0538 9.87542C29.9694 10.0624 29.9694 10.904 29.0538 10.904C28.5821 10.904 28.3602 11.091 28.166 11.6521C27.8053 12.6807 27.2782 12.7274 26.8065 11.769C26.5568 11.2313 26.1684 10.904 25.78 10.8573C24.8366 10.7404 24.8366 10.2027 25.8077 9.89879C26.3903 9.73515 26.6955 9.43125 26.8065 8.98708C27.0562 8.12212 27.7221 8.1455 28.1105 9.03384ZM20.4253 12.3067C20.5085 12.5638 20.8969 12.8443 21.2854 12.9145C22.1732 13.1015 22.1177 13.6158 21.1466 14.0366C20.7027 14.247 20.2866 14.621 20.2033 14.9015C20.0091 15.4626 19.4542 15.2989 19.4542 14.6444C19.4542 14.3872 19.149 14.1301 18.6219 13.9664C18.178 13.8496 17.7896 13.6158 17.7896 13.4755C17.7896 13.3119 18.178 13.0781 18.6219 12.9378C19.1213 12.7742 19.4542 12.4937 19.4542 12.2599C19.4542 11.6988 20.2033 11.7222 20.4253 12.3067ZM15.5977 16.7717C16.652 17.3094 17.4566 17.8003 17.3734 17.8938C17.1792 18.1743 13.9886 19.7874 13.6556 19.7874C13.184 19.7874 13.2949 18.4783 13.7943 18.1276C14.1828 17.8704 14.1828 17.8237 13.7943 17.6367C13.3782 17.4497 13.1285 15.8132 13.5169 15.8132C13.6001 15.8132 14.5434 16.234 15.5977 16.7717ZM25.6967 17.0055C25.8632 17.0055 26.4458 16.9354 27.0285 16.8418L28.0828 16.6782L27.6111 17.5432C27.1394 18.338 27.1394 18.4315 27.6111 19.2263C27.8608 19.6939 28.0273 20.138 27.944 20.1848C27.8608 20.2549 27.3614 20.1848 26.8065 20.0212C26.0851 19.8108 25.5857 19.8108 24.9476 19.9978C23.6436 20.3952 23.5881 20.3251 24.0598 19.2965C24.4205 18.5484 24.4482 18.2445 24.1985 17.7769C23.7269 16.8652 23.8101 16.6782 24.6702 16.8418C25.0863 16.9354 25.558 17.0055 25.6967 17.0055ZM10.7979 18.2211C10.9089 18.6886 10.1043 19.0159 9.68817 18.6653C9.272 18.3146 9.66042 17.6367 10.2153 17.7302C10.4928 17.7769 10.7425 17.9873 10.7979 18.2211ZM8.93907 22.803C9.13328 23.2238 9.49396 23.5511 9.91012 23.6213C10.7979 23.8083 10.687 24.5096 9.74366 24.6966C9.35523 24.7667 9.0223 25.0239 8.96681 25.281C8.7726 26.146 8.35643 26.2161 8.0235 25.4681C7.82929 25.0005 7.46861 24.6966 7.10793 24.6499C6.33109 24.5563 6.35883 23.668 7.16342 23.5745C7.5241 23.5277 7.85703 23.2472 8.05124 22.803C8.41192 21.9381 8.57839 21.9381 8.93907 22.803ZM7.57959 31.1254C7.63508 31.4293 7.91252 31.6163 8.43967 31.663C9.38298 31.7565 9.38298 32.4812 8.41192 32.5981C8.0235 32.6449 7.74605 32.902 7.63508 33.2527C7.41312 33.954 6.74725 34.0008 6.63628 33.2994C6.58079 32.9722 6.30334 32.7384 5.85943 32.6449C5.47101 32.5747 5.13807 32.3176 5.08259 32.1072C4.99935 31.8033 5.19356 31.7098 5.83169 31.7098C6.55304 31.7098 6.69176 31.6163 6.69176 31.1721C6.69176 30.1669 7.35763 30.1201 7.57959 31.1254ZM61.7368 32.0137C62.1807 32.6215 60.9877 33.4631 60.2108 33.1124C59.6282 32.8319 59.4895 31.8267 60.0444 31.6163C60.6548 31.4059 61.4316 31.5929 61.7368 32.0137ZM57.0757 35.0995C57.159 35.4268 57.5751 35.8242 57.9358 35.9645C58.8236 36.3385 58.7959 36.7125 57.9081 36.806C57.4364 36.8528 57.2144 37.0632 57.0757 37.5775C56.8815 38.4658 56.1601 38.4658 55.9382 37.5775C55.7995 37.0398 55.5775 36.8528 55.0226 36.806C54.0793 36.7125 54.0238 36.058 54.9394 35.9645C55.3556 35.8943 55.6885 35.6372 55.8827 35.193C56.2711 34.3514 56.826 34.3047 57.0757 35.0995ZM52.5811 41.3646C53.1637 41.7386 53.0805 42.4166 52.4146 42.7906C51.4436 43.3049 50.3616 42.1594 51.0829 41.4114C51.4991 40.9906 51.943 40.9672 52.5811 41.3646ZM59.5172 42.6737C60.4328 43.5153 59.0178 44.614 58.0745 43.8192C57.4364 43.2815 57.8803 42.2296 58.7126 42.2296C58.9069 42.2296 59.2675 42.44 59.5172 42.6737ZM18.7329 60.043C19.3432 60.8612 17.9838 61.773 17.0959 61.1652C16.5411 60.7677 16.5688 60.0664 17.1792 59.7859C17.8173 59.4586 18.3444 59.5521 18.7329 60.043Z" fill="#878788"/>
<path d="M49.0298 7.77129C48.1142 8.54274 48.8911 9.96875 50.2228 9.96875C51.5823 9.96875 52.2759 8.8934 51.6378 7.84142C51.2771 7.28036 49.6402 7.23361 49.0298 7.77129Z" fill="#878788"/>
<path d="M41.0949 11.3715C39.5412 11.8391 38.2372 12.0729 37.1552 12.0729H35.546V19.3198V26.5668H41.733C45.5618 26.5668 47.7258 26.6603 47.4484 26.8006C46.6993 27.1746 41.2614 27.9928 38.4037 28.1564L35.6847 28.3201L35.6015 29.3019L35.5183 30.3071H36.7113C38.1263 30.3071 44.674 29.6526 45.0069 29.4656C45.3953 29.2785 45.3121 30.1201 44.2855 35.9878C43.4809 40.7802 43.2035 41.7854 42.4544 43.2114C41.0117 45.8063 39.236 46.905 36.3784 46.905C35.768 46.905 35.1853 47.0687 34.9634 47.279C34.6582 47.6063 34.7137 47.7466 35.4905 48.3544L36.4061 49.0323L35.768 50.0142C35.4073 50.5519 34.9079 51.2532 34.6582 51.5805C34.2143 52.1415 34.2143 52.2117 35.2408 53.474L36.2951 54.7832L36.0732 56.5131C35.9622 57.4715 35.7125 59.3885 35.546 60.8145C35.3796 62.2171 35.1853 63.7367 35.1021 64.1574L34.9356 64.9055H37.5436H40.1516L39.5412 60.6275C38.6534 54.7364 38.6534 54.8533 40.0129 53.3338L41.1504 52.0714L39.8742 50.5752C39.1806 49.7337 38.5979 49.009 38.5979 48.9155C38.5979 48.8453 39.0696 48.5882 39.6522 48.331C40.873 47.7934 42.8983 46.2738 43.6197 45.3621C44.7572 43.866 44.6462 45.7829 42.7596 57.6586C42.1492 61.4457 41.6498 64.625 41.6498 64.7185C41.6498 64.8354 44.7017 64.9055 48.4472 64.9055H55.2446V61.7496C55.2446 58.617 55.2446 58.5937 55.9105 58.4534C56.2989 58.3833 56.7428 58.3833 56.8815 58.4768C57.0757 58.5703 57.1867 59.8093 57.1867 61.773V64.9055H59.6837H62.1807L62.1252 58.3599L62.042 51.8142L61.0154 50.9727C60.1276 50.2012 59.4895 49.9908 54.9394 48.8687C52.1372 48.1908 49.8067 47.6765 49.7234 47.7232C49.668 47.7934 50.3893 48.9622 51.3049 50.3649C52.2204 51.7675 53.0805 53.1701 53.1638 53.4974C53.3025 53.9182 53.0528 54.7364 52.3592 56.1624C51.2216 58.5001 51.1939 58.5937 51.7765 58.5937C52.1095 58.5937 53.5799 60.2067 53.5799 60.5807C53.5799 60.6509 52.3314 60.6976 50.8055 60.6976C48.8634 60.6976 48.031 60.6041 48.031 60.4171C48.031 60.2768 48.7246 58.7807 49.557 57.1209L51.1107 54.1052L49.668 51.861C48.364 49.7804 47.4484 48.1206 45.645 44.4738C45.0624 43.3283 45.0069 43.001 45.2566 42.3932C45.3953 41.9958 45.7837 40.2892 46.0889 38.6295C46.6161 35.7541 46.6993 35.5437 47.4761 35.0294C49.3073 33.8137 49.8067 31.4994 48.4749 30.3305C47.6981 29.6526 47.5316 28.9513 48.1143 28.811C51.2216 28.0396 53.8574 26.7538 53.8574 25.9823C53.8574 25.3278 52.6644 24.4628 51.2216 24.0888C49.4737 23.6212 49.7789 24.3226 48.1698 16.8418C47.6149 14.2703 47.1155 12.0027 47.0322 11.7923C46.5606 10.4598 44.6185 10.3196 41.0949 11.3715ZM44.7017 22.3589C44.7017 23.5044 44.674 23.5277 43.8694 23.5277C43.2312 23.5277 43.037 23.4342 43.037 23.0602C43.037 22.6862 42.8428 22.5926 42.066 22.5926C41.1782 22.5926 41.0949 22.5459 41.0949 21.8913V21.19H42.8983H44.7017V22.3589ZM47.7536 22.3589C47.7536 23.5044 47.7258 23.5277 46.9213 23.5277C46.1167 23.5277 46.0889 23.481 46.0889 22.5225C46.0889 21.3536 46.1999 21.19 47.1155 21.19C47.6981 21.19 47.7536 21.2835 47.7536 22.3589Z" fill="#878788"/>
<path d="M56.7982 13.3819C56.715 13.5923 56.6318 13.943 56.6318 14.2001C56.6318 14.5508 56.4376 14.6443 55.6885 14.6443C55.1613 14.6443 54.6342 14.7612 54.5232 14.9248C54.2735 15.2521 55.1613 15.8132 55.9659 15.8132C56.4376 15.8132 56.604 15.9768 56.6873 16.4444C56.7982 17.3327 57.8525 17.3561 57.9635 16.4911C58.019 16.0236 58.2687 15.8132 58.9346 15.6495C60.0998 15.369 60.0998 14.7846 58.9346 14.6911C58.2687 14.6443 58.019 14.504 58.019 14.1768C58.019 13.5222 57.7138 13.0079 57.3254 13.0079C57.1312 13.0079 56.8815 13.1715 56.7982 13.3819Z" fill="#878788"/>
<path d="M53.8851 19.086C53.3579 19.3431 53.6354 20.1379 54.2735 20.1379C54.6342 20.1379 54.8561 19.9509 54.9116 19.647C54.9949 19.1093 54.44 18.7821 53.8851 19.086Z" fill="#878788"/>
<path d="M23.061 39.8918C26.1961 47.9102 26.5845 48.7751 27.1116 48.7751C27.4446 48.7751 27.8053 48.6115 27.8885 48.4011C27.9717 48.1907 28.055 44.1932 28.055 39.5177V31.0084H23.8378H19.5929L23.061 39.8918ZM24.8643 34.1643C24.8643 34.702 24.7256 34.8657 24.3372 34.8657C23.6713 34.8657 23.1997 34.2345 23.4216 33.7202C23.5326 33.463 23.8378 33.3461 24.2262 33.3929C24.7256 33.4397 24.8643 33.6033 24.8643 34.1643ZM25.7244 39.0736C25.6412 39.284 25.336 39.4242 25.0863 39.3775C24.4759 39.284 24.254 38.4891 24.7811 38.232C25.2805 37.9748 25.9741 38.5827 25.7244 39.0736Z" fill="#878788"/>
</svg>
