<svg width="44" height="44" viewBox="0 0 44 44" fill="none" xmlns="http://www.w3.org/2000/svg">
<path d="M28.7678 20.8157L13.9359 6.39389C13.6885 6.15313 13.3578 6.01687 13.0126 6.01337C12.6673 6.00986 12.334 6.13939 12.0817 6.37507L12.0654 6.39103C11.9426 6.50528 11.8444 6.64331 11.7767 6.79671C11.709 6.95012 11.6732 7.11569 11.6715 7.28336C11.6698 7.45104 11.7023 7.6173 11.7668 7.77205C11.8314 7.9268 11.9268 8.06679 12.0472 8.1835L26.0141 21.7634L11.7746 35.0517C11.6519 35.166 11.5536 35.304 11.4859 35.4574C11.4182 35.6108 11.3824 35.7764 11.3807 35.9441C11.379 36.1117 11.4115 36.278 11.476 36.4328C11.5406 36.5875 11.636 36.7275 11.7564 36.8442L11.7724 36.8605C12.0198 37.1013 12.3505 37.2375 12.6957 37.241C13.041 37.2445 13.3743 37.115 13.6266 36.8793L28.7481 22.7614C28.8811 22.6372 28.9875 22.4874 29.0608 22.3209C29.1342 22.1544 29.1729 21.9747 29.1748 21.7928C29.1766 21.6109 29.1415 21.4305 29.0716 21.2625C29.0016 21.0946 28.8983 20.9426 28.7678 20.8157Z" fill="#101728"/>
</svg>
