<svg width="33" height="33" viewBox="0 0 33 33" fill="none" xmlns="http://www.w3.org/2000/svg">
<path d="M29.5212 5.98125L27.6787 5.21125V17.6275L31.02 9.57C31.5837 8.1675 30.9375 6.55875 29.5212 5.98125ZM2.70874 11.0688L9.52874 27.5C9.72957 27.9999 10.0721 28.4303 10.5143 28.7381C10.9565 29.0459 11.4789 29.2177 12.0175 29.2325C12.375 29.2325 12.7462 29.1637 13.1037 29.0125L23.2375 24.8187C24.2687 24.3925 24.9012 23.375 24.9287 22.3575C24.9425 22 24.8737 21.6012 24.75 21.2437L17.875 4.8125C17.6806 4.30928 17.3393 3.87621 16.8954 3.56966C16.4516 3.26311 15.9257 3.09728 15.3862 3.09375C15.0287 3.09375 14.6712 3.17625 14.3275 3.3L4.20749 7.49375C3.53479 7.76922 2.99902 8.30057 2.71797 8.97096C2.43692 9.64135 2.4336 10.3959 2.70874 11.0688ZM24.915 5.84375C24.915 5.1144 24.6253 4.41493 24.1095 3.89921C23.5938 3.38348 22.8943 3.09375 22.165 3.09375H20.1712L24.915 14.5613" fill="#101728"/>
</svg>
