<svg width="35" height="33" viewBox="0 0 35 33" fill="none" xmlns="http://www.w3.org/2000/svg">
<path d="M24.3896 0.132679C23.288 0.341524 21.4979 1.07249 20.5753 1.68743L19.873 2.16314L18.7301 2.03551C16.0449 1.74544 12.6161 2.34878 9.58668 3.64827C5.89628 5.22623 2.43997 8.69541 1.03542 12.2226C0.401989 13.8238 -0.190127 17.5714 0.0577353 18.4184C0.140356 18.7085 0.443299 18.7781 1.39344 18.7317C3.10094 18.6505 3.81699 18.7085 4.49172 19.0101C7.78279 20.4489 7.9618 24.5446 4.79467 25.9021C4.56057 26.0065 4.34025 26.1109 4.31271 26.1226C4.28517 26.1342 4.4091 26.3894 4.57434 26.6795L4.89106 27.2132L5.89628 27.3524C6.44708 27.422 6.9015 27.5265 6.9015 27.5613C6.88773 27.5961 6.68118 27.8281 6.43331 28.0834L5.9789 28.5359L6.18545 29.2205C6.29561 29.5917 6.35069 29.9282 6.30938 29.9746C6.2543 30.0094 5.74481 29.905 5.16646 29.731C4.16124 29.4293 4.10616 29.4177 3.4865 29.5917C3.14225 29.6962 2.67406 29.7774 2.45374 29.7774C2.05441 29.7774 2.05441 29.7774 2.13703 29.2553C2.23342 28.7796 2.20588 28.7331 1.95802 28.7331C1.79277 28.7331 1.66884 28.6983 1.66884 28.6635C1.66884 28.5243 1.99933 28.0718 2.35735 27.7469C2.5639 27.5497 2.79799 27.1552 2.89439 26.8535C3.08717 26.1574 3.08717 26.1806 2.77045 26.1806C2.61898 26.1806 2.19211 26.0761 1.80654 25.9601L1.11804 25.7397V28.9768V32.2139H2.1508H3.18356V31.483C3.18356 30.6708 3.3488 30.4387 4.05108 30.2995L4.42287 30.2183V31.2161V32.2139H7.79656H11.1702V29.9282V27.6425L10.6194 27.1668C10.165 26.7723 9.97224 26.4474 9.51783 25.322C9.21488 24.5678 8.96702 23.8948 8.96702 23.8252C8.96702 23.7556 8.34737 22.108 7.60378 20.1588C5.7035 15.2277 5.52448 14.694 5.52448 14.2183C5.52448 13.6613 6.14414 12.6635 6.70872 12.3038C7.5487 11.7585 8.18212 11.6773 11.7486 11.6773H15.0259V12.5475V13.4177H14.4751C13.9794 13.4177 13.9243 13.3829 13.9243 13.1276V12.8375H11.0876C8.71916 12.8375 8.16835 12.8724 7.76902 13.0348C7.13559 13.2784 6.73626 13.8238 6.81888 14.2995C6.87396 14.636 7.76902 17.0377 10.2201 23.4191C11.2666 26.1574 11.3355 26.2966 11.8588 26.6795L12.4096 27.074V29.6381V32.2139H12.9328H13.4423L13.4561 29.6033C13.4699 27.3524 13.4974 26.9579 13.6902 26.7839C13.8279 26.6679 13.9243 26.3778 13.9243 26.1458C13.9243 25.7397 13.9243 25.7281 13.4423 25.7977C12.7125 25.9021 12.3682 25.6352 12.0653 24.7766C11.8588 24.1501 11.0188 21.934 8.55392 15.541C8.31983 14.9608 8.14081 14.4503 8.14081 14.4155C8.14081 14.3807 9.69684 14.3459 11.5834 14.3459H15.0259L14.957 20.8085C14.9295 24.3706 14.8606 28.3967 14.8193 29.7542L14.7367 32.2139H15.6455H16.5406V18.5924C16.5406 6.28207 16.5681 4.97097 16.7609 4.90136C16.8849 4.86655 17.4907 4.83174 18.1104 4.83174H19.2396L19.4736 4.43725C19.5838 4.2168 20.0658 3.67148 20.5339 3.21898C21.2362 2.52282 21.5529 2.32557 22.5031 1.94269C24.3483 1.20012 25.7941 1.22332 27.6531 1.9891C29.5396 2.77807 30.9717 4.53007 31.316 6.46771C31.5914 8.12688 30.9855 9.85567 29.636 11.1436C29.2505 11.5265 28.7134 11.9674 28.4518 12.1298C28.0662 12.3502 27.9698 12.4895 27.9698 12.8027C27.9698 13.5337 27.2262 14.3111 26.0833 14.7984C25.5463 15.0188 25.505 15.0653 25.6289 15.3437C25.9732 16.0863 25.5876 17.2814 24.7889 17.9543C24.2381 18.4184 24.2243 18.4416 23.9627 19.9384C23.7011 21.3539 23.7011 21.4931 23.8939 21.9456C24.0866 22.3633 24.1968 22.4445 24.7063 22.5489C26.703 22.9666 28.3279 23.3379 29.3193 23.6048L30.4622 23.9181L30.7239 23.628C32.1009 22.1196 33.2025 18.9173 33.2025 16.4576C33.2025 15.3321 33.0235 13.9282 32.872 13.8006C32.8445 13.7658 32.5553 13.8934 32.2386 14.0674C31.674 14.3923 31.6465 14.3923 31.4537 14.1719C30.9717 13.6265 30.9717 13.5685 31.4812 13.3017C32.2248 12.9188 33.4917 11.6657 34.07 10.7723C35.2267 8.96227 35.3093 6.39809 34.2903 4.50687C33.1749 2.43 31.3297 1.01448 28.8098 0.306717C27.6531 -0.018158 25.6014 -0.0993767 24.3896 0.132679ZM13.9518 4.48366C14.0344 4.70411 14.2134 4.85494 14.42 4.90136C14.8744 4.99418 14.8744 5.41187 14.42 5.41187C14.1859 5.41187 14.0757 5.50469 13.9794 5.78315C13.8003 6.29367 13.5387 6.31688 13.3046 5.84117C13.1807 5.57431 12.9879 5.41187 12.7951 5.38866C12.3269 5.33065 12.3269 5.06379 12.8089 4.91296C13.0981 4.83174 13.2495 4.6809 13.3046 4.46045C13.4286 4.03116 13.759 4.04276 13.9518 4.48366ZM10.1375 6.10803C10.1788 6.23566 10.3716 6.37489 10.5644 6.4097C11.005 6.50252 10.9775 6.75777 10.4955 6.96662C10.2752 7.07104 10.0686 7.25669 10.0273 7.39592C9.93093 7.67438 9.65553 7.59316 9.65553 7.26829C9.65553 7.14066 9.50406 7.01303 9.24242 6.93181C9.0221 6.8738 8.82932 6.75777 8.82932 6.68816C8.82932 6.60694 9.0221 6.49091 9.24242 6.4213C9.49029 6.34008 9.65553 6.20085 9.65553 6.08482C9.65553 5.80636 10.0273 5.81796 10.1375 6.10803ZM7.74148 8.32413C8.26474 8.59099 8.66408 8.83464 8.62277 8.88105C8.52638 9.02029 6.94281 9.82087 6.77757 9.82087C6.54348 9.82087 6.59856 9.17112 6.84642 8.99708C7.0392 8.86945 7.0392 8.84625 6.84642 8.75343C6.63987 8.6606 6.51593 7.84842 6.70872 7.84842C6.75003 7.84842 7.21821 8.05727 7.74148 8.32413ZM12.7538 8.44016C12.8364 8.44016 13.1256 8.40535 13.4148 8.35894L13.938 8.27772L13.704 8.70702C13.4699 9.1015 13.4699 9.14791 13.704 9.5424C13.8279 9.77446 13.9105 9.99491 13.8692 10.0181C13.8279 10.0529 13.58 10.0181 13.3046 9.93689C12.9466 9.83247 12.6987 9.83247 12.382 9.92529C11.7348 10.1225 11.7073 10.0877 11.9414 9.57721C12.1204 9.20593 12.1342 9.05509 12.0102 8.82304C11.7761 8.37054 11.8174 8.27772 12.2443 8.35894C12.4509 8.40535 12.685 8.44016 12.7538 8.44016ZM5.35924 9.04349C5.41432 9.27554 5.01499 9.43798 4.80844 9.26394C4.60188 9.0899 4.79467 8.75343 5.07007 8.79984C5.20777 8.82304 5.3317 8.92747 5.35924 9.04349ZM4.43664 11.3176C4.53303 11.5265 4.71205 11.6889 4.9186 11.7237C5.35924 11.8165 5.30416 12.1646 4.83598 12.2574C4.64319 12.2922 4.47795 12.4199 4.45041 12.5475C4.35402 12.9768 4.14747 13.0116 3.98223 12.6403C3.88584 12.4083 3.70682 12.2574 3.52781 12.2342C3.14225 12.1878 3.15602 11.7469 3.55535 11.7005C3.73436 11.6773 3.89961 11.5381 3.996 11.3176C4.17501 10.8883 4.25763 10.8883 4.43664 11.3176ZM3.76191 15.4481C3.78945 15.599 3.92715 15.6918 4.18878 15.715C4.65696 15.7614 4.65696 16.1211 4.17501 16.1791C3.98223 16.2023 3.84453 16.3299 3.78945 16.504C3.67928 16.8521 3.3488 16.8753 3.29372 16.5272C3.26618 16.3647 3.12848 16.2487 2.90816 16.2023C2.71537 16.1675 2.55013 16.0399 2.52259 15.9354C2.48128 15.7846 2.57767 15.7382 2.89439 15.7382C3.25241 15.7382 3.32126 15.6918 3.32126 15.4713C3.32126 14.9724 3.65174 14.9492 3.76191 15.4481ZM30.6412 15.889C30.8616 16.1907 30.2694 16.6084 29.8839 16.4344C29.5947 16.2951 29.5259 15.7962 29.8013 15.6918C30.1042 15.5874 30.4898 15.6802 30.6412 15.889ZM28.3279 17.4206C28.3692 17.583 28.5757 17.7803 28.7547 17.8499C29.1954 18.0355 29.1816 18.2212 28.741 18.2676C28.5069 18.2908 28.3967 18.3952 28.3279 18.6505C28.2315 19.0914 27.8734 19.0914 27.7633 18.6505C27.6944 18.3836 27.5843 18.2908 27.3089 18.2676C26.8407 18.2212 26.8131 17.8963 27.2675 17.8499C27.4741 17.8151 27.6393 17.6874 27.7357 17.467C27.9285 17.0493 28.2039 17.0261 28.3279 17.4206ZM26.0971 20.5301C26.3863 20.7157 26.3449 21.0522 26.0145 21.2378C25.5325 21.4931 24.9955 20.9246 25.3535 20.5533C25.5601 20.3444 25.7804 20.3328 26.0971 20.5301ZM29.5396 21.1798C29.994 21.5975 29.2918 22.1429 28.8236 21.7484C28.5069 21.4815 28.7272 20.9594 29.1403 20.9594C29.2367 20.9594 29.4157 21.0638 29.5396 21.1798ZM9.29751 29.8006C9.60045 30.2067 8.92571 30.6592 8.48507 30.3575C8.20966 30.1603 8.22343 29.8122 8.52638 29.673C8.84309 29.5105 9.10472 29.5569 9.29751 29.8006Z" fill="#101728"/>
<path d="M24.3345 3.85714C23.8801 4.24002 24.2657 4.94778 24.9266 4.94778C25.6014 4.94778 25.9456 4.41406 25.6289 3.89195C25.4499 3.61348 24.6375 3.59028 24.3345 3.85714Z" fill="#101728"/>
<path d="M20.3962 5.64392C19.6251 5.87597 18.9779 5.992 18.4409 5.992H17.6422V9.58881V13.1856H20.7129C22.6132 13.1856 23.6873 13.232 23.5496 13.3017C23.1778 13.4873 20.4788 13.8934 19.0605 13.9746L17.711 14.0558L17.6697 14.5431L17.6284 15.042H18.2205C18.9228 15.042 22.1726 14.7172 22.3378 14.6244C22.5306 14.5315 22.4893 14.9492 21.9798 17.8615C21.5804 20.24 21.4427 20.7389 21.0709 21.4467C20.3549 22.7346 19.4736 23.2799 18.0553 23.2799C17.7523 23.2799 17.4632 23.3611 17.353 23.4656C17.2015 23.628 17.2291 23.6976 17.6146 23.9993L18.0691 24.3357L17.7523 24.8231C17.5733 25.0899 17.3255 25.438 17.2015 25.6004C16.9812 25.8789 16.9812 25.9137 17.4907 26.5402L18.014 27.19L17.9038 28.0486C17.8487 28.5243 17.7248 29.4757 17.6422 30.1835C17.5596 30.8796 17.4632 31.6338 17.4219 31.8426L17.3392 32.2139H18.6336H19.928L19.6251 30.0906C19.1844 27.1668 19.1844 27.2248 19.8592 26.4706L20.4238 25.8441L19.7903 25.1015C19.4461 24.6838 19.1569 24.3241 19.1569 24.2777C19.1569 24.2429 19.391 24.1153 19.6802 23.9877C20.2861 23.7208 21.2913 22.9666 21.6493 22.5141C22.2139 21.7716 22.1588 22.723 21.2224 28.6171C20.9195 30.4967 20.6716 32.0747 20.6716 32.1211C20.6716 32.1791 22.1863 32.2139 24.0453 32.2139H27.419V30.6476C27.419 29.0928 27.419 29.0812 27.7495 29.0116C27.9423 28.9768 28.1626 28.9768 28.2314 29.0232C28.3278 29.0696 28.3829 29.6846 28.3829 30.6592V32.2139H29.6222H30.8615L30.834 28.9652L30.7927 25.7165L30.2832 25.2988C29.8425 24.9159 29.5258 24.8115 27.2675 24.2545C25.8767 23.9181 24.72 23.6628 24.6787 23.686C24.6512 23.7208 25.0092 24.3009 25.4636 24.9971C25.918 25.6933 26.3449 26.3894 26.3862 26.5518C26.4551 26.7607 26.3311 27.1668 25.9869 27.8745C25.4223 29.0348 25.4085 29.0812 25.6977 29.0812C25.863 29.0812 26.5928 29.8818 26.5928 30.0674C26.5928 30.1023 25.9731 30.1255 25.2158 30.1255C24.2519 30.1255 23.8387 30.079 23.8387 29.9862C23.8387 29.9166 24.183 29.174 24.5961 28.3503L25.3672 26.8535L24.6512 25.7397C24.004 24.707 23.5496 23.8832 22.6545 22.0732C22.3653 21.5047 22.3378 21.3423 22.4617 21.0406C22.5306 20.8434 22.7234 19.9964 22.8748 19.1726C23.1365 17.7455 23.1778 17.641 23.5633 17.3858C24.4722 16.7824 24.72 15.6338 24.0591 15.0536C23.6735 14.7172 23.5909 14.3691 23.8801 14.2995C25.4223 13.9166 26.7305 13.2784 26.7305 12.8956C26.7305 12.5707 26.1384 12.1414 25.4223 11.9557C24.5548 11.7237 24.7063 12.0718 23.9076 8.35894C23.6322 7.08265 23.3843 5.95719 23.343 5.85277C23.1089 5.19142 22.145 5.12181 20.3962 5.64392ZM22.1863 11.0972C22.1863 11.6657 22.1726 11.6773 21.7732 11.6773C21.4565 11.6773 21.3601 11.6309 21.3601 11.4452C21.3601 11.2596 21.2637 11.2132 20.8782 11.2132C20.4375 11.2132 20.3962 11.19 20.3962 10.8651V10.517H21.2913H22.1863V11.0972ZM23.701 11.0972C23.701 11.6657 23.6873 11.6773 23.2879 11.6773C22.8886 11.6773 22.8748 11.6541 22.8748 11.1784C22.8748 10.5982 22.9299 10.517 23.3843 10.517C23.6735 10.517 23.701 10.5634 23.701 11.0972Z" fill="#101728"/>
<path d="M28.1901 6.64176C28.1488 6.74618 28.1075 6.92022 28.1075 7.04785C28.1075 7.22189 28.0111 7.2683 27.6393 7.2683C27.3777 7.2683 27.116 7.32631 27.061 7.40753C26.937 7.56997 27.3777 7.84843 27.777 7.84843C28.0111 7.84843 28.0937 7.92965 28.135 8.1617C28.1901 8.6026 28.7134 8.6142 28.7685 8.1849C28.796 7.95285 28.9199 7.84843 29.2504 7.76721C29.8288 7.62798 29.8288 7.33791 29.2504 7.2915C28.9199 7.2683 28.796 7.19868 28.796 7.03624C28.796 6.71137 28.6445 6.45611 28.4517 6.45611C28.3554 6.45611 28.2314 6.53733 28.1901 6.64176Z" fill="#101728"/>
<path d="M26.7443 9.47279C26.4827 9.60041 26.6204 9.9949 26.9371 9.9949C27.1161 9.9949 27.2262 9.90208 27.2538 9.75125C27.2951 9.48439 27.0197 9.32195 26.7443 9.47279Z" fill="#101728"/>
<path d="M11.4455 19.7991C13.0015 23.7788 13.1943 24.2081 13.456 24.2081C13.6212 24.2081 13.8002 24.1269 13.8415 24.0225C13.8828 23.9181 13.9241 21.934 13.9241 19.6135V15.3901H11.8311H9.72424L11.4455 19.7991ZM12.3406 16.9565C12.3406 17.2234 12.2717 17.3046 12.0789 17.3046C11.7485 17.3046 11.5144 16.9913 11.6245 16.736C11.6796 16.6084 11.8311 16.5504 12.0239 16.5736C12.2717 16.5968 12.3406 16.678 12.3406 16.9565ZM12.7674 19.393C12.7261 19.4975 12.5747 19.5671 12.4507 19.5439C12.1478 19.4975 12.0376 19.103 12.2993 18.9753C12.5471 18.8477 12.8914 19.1494 12.7674 19.393Z" fill="#101728"/>
</svg>
