<svg width="193" height="177" viewBox="0 0 193 177" fill="none" xmlns="http://www.w3.org/2000/svg">
<path d="M134.009 0.729095C127.956 1.8766 118.12 5.8929 113.051 9.2717L109.192 11.8855L102.913 11.1842C88.1588 9.59045 69.3194 12.9055 52.6742 20.0456C32.3972 28.7157 13.4065 47.7772 5.68911 67.1574C2.20873 75.955 -1.04466 96.5465 0.317227 101.2C0.771189 102.794 2.43572 103.177 7.65628 102.922C17.0382 102.475 20.9725 102.794 24.6798 104.452C42.7627 112.357 43.7462 134.861 26.3444 142.32C25.0581 142.893 23.8476 143.467 23.6963 143.531C23.5449 143.595 24.2259 144.997 25.1338 146.591L26.874 149.523L32.3972 150.288C35.4236 150.671 37.9204 151.245 37.9204 151.436C37.8447 151.627 36.7098 152.902 35.3479 154.305L32.8512 156.791L33.9861 160.552C34.5913 162.592 34.894 164.441 34.667 164.696C34.3644 164.887 31.5649 164.314 28.3872 163.357C22.864 161.7 22.5614 161.636 19.1566 162.592C17.2651 163.166 14.6927 163.612 13.4821 163.612C11.288 163.612 11.288 163.612 11.7419 160.744C12.2716 158.13 12.1202 157.875 10.7583 157.875C9.85042 157.875 9.16948 157.684 9.16948 157.492C9.16948 156.727 10.9853 154.241 12.9525 152.456C14.0874 151.372 15.3736 149.205 15.9032 147.547C16.9625 143.722 16.9625 143.85 15.2223 143.85C14.39 143.85 12.0446 143.276 9.92608 142.638L6.14307 141.427V159.214V177H11.8176H17.4921V172.984C17.4921 168.521 18.4 167.246 22.2587 166.481L24.3015 166.035V171.517V177H42.8383H61.3751V164.441V151.882L58.3487 149.268C55.8519 147.101 54.7926 145.316 52.2959 139.132C50.6313 134.988 49.2694 131.291 49.2694 130.908C49.2694 130.526 45.8647 121.473 41.7791 110.763C31.3379 83.6689 30.3544 80.7363 30.3544 78.1225C30.3544 75.0625 33.7591 69.5799 36.8611 67.6037C41.4764 64.6074 44.9568 64.1611 64.5528 64.1611H82.56V68.9424V73.7237H79.5336C76.8098 73.7237 76.5071 73.5325 76.5071 72.13V70.5362H60.9211C47.9076 70.5362 44.8811 70.7274 42.687 71.62C39.2066 72.9587 37.0125 75.955 37.4664 78.5688C37.7691 80.4176 42.687 93.614 56.1545 128.677C61.9047 143.722 62.283 144.487 65.1581 146.591L68.1845 148.758V162.847V177H71.0596H73.859L73.9347 162.656C74.0104 150.288 74.1617 148.121 75.2209 147.165C75.9775 146.527 76.5071 144.933 76.5071 143.658C76.5071 141.427 76.5071 141.363 73.859 141.746C69.849 142.32 67.9575 140.853 66.293 136.136C65.1581 132.693 60.5428 120.517 46.9996 85.3901C45.7134 82.2026 44.7298 79.3976 44.7298 79.2063C44.7298 79.0151 53.2794 78.8238 63.6449 78.8238H82.56L82.1817 114.333C82.0303 133.904 81.652 156.026 81.4251 163.485L80.9711 177H85.9647H90.8826V102.157C90.8826 34.517 91.0339 27.3132 92.0932 26.9307C92.7741 26.7394 96.1032 26.5482 99.5079 26.5482H105.712L106.998 24.3806C107.604 23.1694 110.252 20.1731 112.824 17.6868C116.683 13.8618 118.423 12.778 123.644 10.6742C133.782 6.59416 141.726 6.72166 151.94 10.9292C162.306 15.2643 170.175 24.8906 172.066 35.537C173.579 44.6534 170.25 54.1522 162.836 61.2286C160.717 63.3324 157.766 65.7549 156.329 66.6474C154.21 67.8587 153.681 68.6237 153.681 70.3449C153.681 74.3612 149.595 78.6325 143.315 81.3101C140.364 82.5213 140.137 82.7763 140.818 84.3064C142.71 88.3864 140.591 94.9527 136.203 98.6503C133.177 101.2 133.101 101.328 131.663 109.552C130.226 117.329 130.226 118.094 131.285 120.581C132.344 122.876 132.95 123.322 135.749 123.896C146.72 126.191 155.648 128.231 161.095 129.697L167.375 131.418L168.813 129.824C176.379 121.537 182.432 103.942 182.432 90.4264C182.432 84.2426 181.448 76.5288 180.616 75.8275C180.464 75.6363 178.876 76.3375 177.135 77.2938C174.033 79.0788 173.882 79.0788 172.823 77.8675C170.175 74.8712 170.175 74.5525 172.974 73.0862C177.06 70.9825 184.02 64.0974 187.198 59.1886C193.554 49.2434 194.008 35.1545 188.409 24.7631C182.28 13.3517 172.142 5.57414 158.296 1.68535C151.94 -0.0996704 140.667 -0.545929 134.009 0.729095ZM76.6585 24.6356C77.1124 25.8469 78.096 26.6757 79.2309 26.9307C81.7277 27.4407 81.7277 29.7357 79.2309 29.7357C77.9447 29.7357 77.3394 30.2457 76.8098 31.7757C75.8262 34.5807 74.3887 34.7083 73.1024 32.0945C72.4215 30.6282 71.3622 29.7357 70.303 29.6082C67.7306 29.2894 67.7306 27.8232 70.3787 26.9944C71.9675 26.5482 72.7998 25.7194 73.1024 24.5081C73.7834 22.1494 75.5992 22.2131 76.6585 24.6356ZM55.7006 33.5607C55.9275 34.262 56.9868 35.027 58.046 35.2183C60.4672 35.7283 60.3158 37.1308 57.6677 38.2783C56.4572 38.8521 55.3223 39.8721 55.0953 40.6371C54.5657 42.1671 53.0525 41.7208 53.0525 39.9358C53.0525 39.2346 52.2202 38.5333 50.7826 38.0871C49.5721 37.7683 48.5128 37.1308 48.5128 36.7483C48.5128 36.302 49.5721 35.6645 50.7826 35.282C52.1445 34.8358 53.0525 34.0708 53.0525 33.4332C53.0525 31.9032 55.0953 31.967 55.7006 33.5607ZM42.5357 45.7371C45.4108 47.2034 47.6049 48.5422 47.3779 48.7972C46.8483 49.5622 38.1474 53.961 37.2395 53.961C35.9532 53.961 36.2559 50.3909 37.6178 49.4347C38.677 48.7334 38.677 48.6059 37.6178 48.0959C36.4828 47.5859 35.8019 43.1234 36.8611 43.1234C37.0881 43.1234 39.6606 44.2709 42.5357 45.7371ZM70.076 46.3746C70.53 46.3746 72.1189 46.1834 73.7077 45.9284L76.5828 45.4821L75.2966 47.8409C74.0104 50.0084 74.0104 50.2635 75.2966 52.431C75.9775 53.706 76.4315 54.9173 76.2045 55.0448C75.9775 55.236 74.6156 55.0448 73.1024 54.5985C71.1353 54.0247 69.7734 54.0247 68.0332 54.5348C64.4772 55.6185 64.3258 55.4273 65.6121 52.6222C66.5956 50.5822 66.6713 49.7534 65.9904 48.4784C64.7041 45.9921 64.9311 45.4821 67.2766 45.9284C68.4115 46.1834 69.6977 46.3746 70.076 46.3746ZM29.4464 49.6897C29.7491 50.9647 27.5549 51.8572 26.42 50.901C25.2851 49.9447 26.3444 48.0959 27.8576 48.3509C28.6142 48.4784 29.2951 49.0522 29.4464 49.6897ZM24.3772 62.1848C24.9068 63.3324 25.8904 64.2249 27.0253 64.4161C29.4464 64.9261 29.1438 66.8387 26.5714 67.3487C25.5121 67.5399 24.6042 68.2412 24.4529 68.9424C23.9232 71.3012 22.7883 71.4925 21.8804 69.4524C21.3508 68.1774 20.3672 67.3487 19.3836 67.2212C17.2651 66.9661 17.3408 64.5436 19.5349 64.2886C20.5185 64.1611 21.4264 63.3961 21.9561 62.1848C22.9397 59.8261 23.3936 59.8261 24.3772 62.1848ZM20.6698 84.8801C20.8212 85.7089 21.5778 86.2189 23.0153 86.3464C25.5878 86.6014 25.5878 88.5777 22.9397 88.8964C21.8804 89.0239 21.1238 89.7252 20.8212 90.6814C20.2159 92.594 18.4 92.7215 18.0974 90.8089C17.9461 89.9164 17.1895 89.2789 15.9789 89.0239C14.9197 88.8327 14.0117 88.1314 13.8604 87.5577C13.6334 86.7289 14.1631 86.4739 15.9032 86.4739C17.8704 86.4739 18.2487 86.2189 18.2487 85.0076C18.2487 82.2663 20.0646 82.1388 20.6698 84.8801ZM168.359 87.3027C169.569 88.9602 166.316 91.2552 164.197 90.2989C162.609 89.5339 162.23 86.7926 163.743 86.2189C165.408 85.6451 167.526 86.1551 168.359 87.3027ZM155.648 95.7178C155.875 96.6103 157.01 97.694 157.993 98.0765C160.414 99.0965 160.339 100.117 157.918 100.372C156.631 100.499 156.026 101.073 155.648 102.475C155.118 104.898 153.151 104.898 152.546 102.475C152.167 101.009 151.562 100.499 150.049 100.372C147.477 100.117 147.325 98.3315 149.822 98.0765C150.957 97.8853 151.865 97.184 152.394 95.9728C153.454 93.6777 154.967 93.5502 155.648 95.7178ZM143.391 112.803C144.98 113.823 144.753 115.672 142.937 116.692C140.289 118.094 137.338 114.97 139.305 112.93C140.44 111.783 141.651 111.719 143.391 112.803ZM162.306 116.373C164.803 118.668 160.944 121.664 158.372 119.497C156.631 118.031 157.842 115.162 160.112 115.162C160.641 115.162 161.625 115.736 162.306 116.373ZM51.0853 163.74C52.7498 165.971 49.0425 168.457 46.6213 166.8C45.1081 165.716 45.1838 163.804 46.8483 163.039C48.5885 162.146 50.026 162.401 51.0853 163.74Z" fill="white"/>
<path d="M133.706 21.1932C131.209 23.2969 133.328 27.1857 136.96 27.1857C140.667 27.1857 142.558 24.2532 140.818 21.3844C139.835 19.8544 135.371 19.7269 133.706 21.1932Z" fill="white"/>
<path d="M112.068 31.0107C107.831 32.2857 104.275 32.9232 101.324 32.9232H96.9355V52.686V72.4487H113.808C124.249 72.4487 130.15 72.7037 129.394 73.0862C127.351 74.1062 112.522 76.3375 104.728 76.7838L97.3138 77.23L97.0868 79.9075L96.8598 82.6488H100.113C103.972 82.6488 121.828 80.8638 122.736 80.3538C123.795 79.8438 123.568 82.1388 120.768 98.1403C118.574 111.209 117.818 113.95 115.775 117.839C111.841 124.916 106.998 127.912 99.2053 127.912C97.5408 127.912 95.9519 128.358 95.3466 128.932C94.5144 129.824 94.6657 130.207 96.7842 131.864L99.281 133.713L97.5408 136.391C96.5572 137.857 95.1953 139.77 94.5144 140.662C93.3038 142.192 93.3038 142.383 96.1032 145.826L98.9783 149.396L98.373 154.113C98.0704 156.727 97.3894 161.955 96.9355 165.844C96.4815 169.669 95.9519 173.812 95.7249 174.96L95.271 177H102.383H109.495L107.831 165.334C105.409 149.268 105.409 149.587 109.117 145.443L112.219 142.001L108.738 137.921C106.847 135.626 105.258 133.649 105.258 133.394C105.258 133.203 106.544 132.502 108.133 131.801C111.462 130.334 116.985 126.191 118.953 123.704C122.055 119.624 121.752 124.852 116.607 157.237C114.943 167.565 113.581 176.235 113.581 176.49C113.581 176.809 121.903 177 132.118 177H150.654V168.394C150.654 159.851 150.654 159.787 152.47 159.405C153.529 159.214 154.74 159.214 155.118 159.469C155.648 159.724 155.951 163.102 155.951 168.457V177H162.76H169.569L169.418 159.15L169.191 141.3L166.392 139.005C163.97 136.901 162.23 136.327 149.822 133.267C142.18 131.418 135.825 130.016 135.598 130.143C135.447 130.334 137.414 133.522 139.911 137.347C142.407 141.172 144.753 144.997 144.98 145.89C145.358 147.037 144.677 149.268 142.786 153.157C139.684 159.532 139.608 159.787 141.197 159.787C142.105 159.787 146.115 164.186 146.115 165.206C146.115 165.397 142.71 165.525 138.549 165.525C133.252 165.525 130.983 165.27 130.983 164.76C130.983 164.377 132.874 160.297 135.144 155.771L139.381 147.547L135.447 141.427C131.891 135.753 129.394 131.227 124.476 121.282C122.887 118.158 122.736 117.266 123.417 115.608C123.795 114.524 124.854 109.87 125.686 105.344C127.124 97.5028 127.351 96.929 129.469 95.5265C134.463 92.2114 135.825 85.9001 132.193 82.7126C130.075 80.8638 129.621 78.9513 131.21 78.5688C139.684 76.465 146.871 72.9587 146.871 70.8549C146.871 69.0699 143.618 66.7111 139.684 65.6911C134.917 64.4161 135.749 66.3286 131.361 45.9284C129.848 38.9158 128.486 32.732 128.259 32.1582C126.973 28.5244 121.676 28.1419 112.068 31.0107ZM121.903 60.9736C121.903 64.0974 121.828 64.1611 119.634 64.1611C117.893 64.1611 117.364 63.9061 117.364 62.8861C117.364 61.8661 116.834 61.6111 114.716 61.6111C112.295 61.6111 112.068 61.4836 112.068 59.6985V57.786H116.985H121.903V60.9736ZM130.226 60.9736C130.226 64.0974 130.15 64.1611 127.956 64.1611C125.762 64.1611 125.686 64.0336 125.686 61.4198C125.686 58.2323 125.989 57.786 128.486 57.786C130.075 57.786 130.226 58.041 130.226 60.9736Z" fill="white"/>
<path d="M154.891 36.4933C154.664 37.0671 154.437 38.0234 154.437 38.7246C154.437 39.6809 153.908 39.9359 151.865 39.9359C150.427 39.9359 148.99 40.2546 148.687 40.7009C148.006 41.5934 150.427 43.1234 152.621 43.1234C153.908 43.1234 154.362 43.5697 154.589 44.8447C154.891 47.2672 157.766 47.331 158.069 44.9722C158.22 43.6972 158.901 43.1234 160.717 42.6772C163.895 41.9122 163.895 40.3184 160.717 40.0634C158.901 39.9359 158.22 39.5534 158.22 38.6609C158.22 36.8758 157.388 35.4733 156.329 35.4733C155.799 35.4733 155.118 35.9196 154.891 36.4933Z" fill="white"/>
<path d="M146.947 52.0485C145.509 52.7497 146.266 54.9172 148.006 54.9172C148.99 54.9172 149.595 54.4072 149.746 53.5785C149.973 52.1122 148.46 51.2197 146.947 52.0485Z" fill="white"/>
<path d="M62.8882 108.787C71.4378 130.653 72.4971 133.012 73.9346 133.012C74.8425 133.012 75.8261 132.566 76.0531 131.992C76.2801 131.418 76.5071 120.517 76.5071 107.767V84.5614H65.0067H53.4307L62.8882 108.787ZM67.8061 93.1678C67.8061 94.634 67.4278 95.0803 66.3686 95.0803C64.5527 95.0803 63.2665 93.359 63.8718 91.9565C64.1744 91.2553 65.0067 90.9365 66.0659 91.064C67.4278 91.1915 67.8061 91.6378 67.8061 93.1678ZM70.1516 106.555C69.9246 107.129 69.0924 107.512 68.4114 107.384C66.7469 107.129 66.1416 104.962 67.5792 104.26C68.941 103.559 70.8325 105.217 70.1516 106.555Z" fill="white"/>
</svg>
